
<svg width="106px" height="12px" viewBox="0 0 106 12" version="1.1" xmlns="http://www.w3.org/2000/svg" xmlns:xlink="http://www.w3.org/1999/xlink">
    <!-- Generator: Sketch 48.1 (47250) - http://www.bohemiancoding.com/sketch -->
    <desc>Created with Sketch.</desc>
    <defs></defs>
    <g id="DESKTOP" stroke="none" stroke-width="1" fill="none" fill-rule="evenodd">
        <g id="News--article" transform="translate(-179.000000, -149.000000)" fill="#0073CE">
            <g id="Group-10" transform="translate(179.000000, 149.000000)">
                <path d="M14.8671875,10 L14.8671875,1.46875 L17.7910156,1.46875 C18.7558642,1.46875 19.4902319,1.66210744 19.9941406,2.04882812 C20.4980494,2.43554881 20.75,3.01171492 20.75,3.77734375 C20.75,4.1679707 20.6445323,4.51952969 20.4335938,4.83203125 C20.2226552,5.14453281 19.9140645,5.38671789 19.5078125,5.55859375 C19.9687523,5.68359437 20.3251941,5.91894358 20.5771484,6.26464844 C20.8291028,6.61035329 20.9550781,7.0253882 20.9550781,7.50976562 C20.9550781,8.31055088 20.6982448,8.9257791 20.1845703,9.35546875 C19.6708959,9.7851584 18.9355517,10 17.9785156,10 L14.8671875,10 Z M16.3496094,6.15039062 L16.3496094,8.81640625 L17.9960938,8.81640625 C18.4609398,8.81640625 18.8242174,8.70117303 19.0859375,8.47070312 C19.3476576,8.24023322 19.4785156,7.91992393 19.4785156,7.50976562 C19.4785156,6.62304244 19.0253952,6.16992197 18.1191406,6.15039062 L16.3496094,6.15039062 Z M16.3496094,5.06054688 L17.8027344,5.06054688 C18.2636742,5.06054688 18.6240221,4.95605573 18.8837891,4.74707031 C19.143556,4.53808489 19.2734375,4.24218941 19.2734375,3.859375 C19.2734375,3.43749789 19.1533215,3.13281344 18.9130859,2.9453125 C18.6728504,2.75781156 18.2988307,2.6640625 17.7910156,2.6640625 L16.3496094,2.6640625 L16.3496094,5.06054688 Z M27.8795573,8.01367188 L24.5748698,8.01367188 L23.8834635,10 L22.3424479,10 L25.5651041,1.46875 L26.8951823,1.46875 L30.1236979,10 L28.5768229,10 L27.8795573,8.01367188 Z M24.9908854,6.81835938 L27.4635416,6.81835938 L26.2272135,3.27929688 L24.9908854,6.81835938 Z M38.1438801,7.22265625 C38.0579422,8.13281705 37.7220081,8.84277089 37.1360676,9.35253906 C36.5501272,9.86230724 35.7708381,10.1171875 34.798177,10.1171875 C34.1184861,10.1171875 33.5198593,9.9560563 33.0022786,9.63378906 C32.4846979,9.31152183 32.0852878,8.85351859 31.8040364,8.25976562 C31.522785,7.66601266 31.3763021,6.97656643 31.3645833,6.19140625 L31.3645833,5.39453125 C31.3645833,4.58983973 31.50716,3.88086244 31.7923176,3.26757812 C32.0774753,2.65429381 32.4866509,2.18164229 33.0198567,1.84960938 C33.5530625,1.51757646 34.1692673,1.3515625 34.8684895,1.3515625 C35.8099005,1.3515625 36.5677054,1.60741932 37.141927,2.11914062 C37.7161486,2.63086193 38.0501297,3.35351096 38.1438801,4.28710938 L36.6673176,4.28710938 C36.5970048,3.67382506 36.4182956,3.23144667 36.1311848,2.95996094 C35.844074,2.68847521 35.4231798,2.55273438 34.8684895,2.55273438 C34.223955,2.55273438 33.7288428,2.78808358 33.3831379,3.25878906 C33.0374331,3.72949454 32.860677,4.41991732 32.8528645,5.33007812 L32.8528645,6.0859375 C32.8528645,7.00781711 33.0179019,7.71093508 33.3479817,8.1953125 C33.6780615,8.67968992 34.1614551,8.921875 34.798177,8.921875 C35.3802112,8.921875 35.8177068,8.79101693 36.110677,8.52929687 C36.4036472,8.26757682 36.5891922,7.8320343 36.6673176,7.22265625 L38.1438801,7.22265625 Z M42.5839843,6.31445312 L41.6171874,7.33984375 L41.6171874,10 L40.1347655,10 L40.1347655,1.46875 L41.6171874,1.46875 L41.6171874,5.47070312 L42.4374999,4.45703125 L44.9335936,1.46875 L46.7265624,1.46875 L43.5566405,5.24804687 L46.908203,10 L45.1503905,10 L42.5839843,6.31445312 Z M57.8333331,2.6640625 L55.1731769,2.6640625 L55.1731769,10 L53.7024738,10 L53.7024738,2.6640625 L51.065755,2.6640625 L51.065755,1.46875 L57.8333331,1.46875 L57.8333331,2.6640625 Z M66.2636716,5.95703125 C66.2636716,6.79297293 66.1191418,7.52636403 65.8300779,8.15722656 C65.5410139,8.78808909 65.1279321,9.27245925 64.5908201,9.61035156 C64.053708,9.94824388 63.4355501,10.1171875 62.7363279,10.1171875 C62.0449182,10.1171875 61.4287134,9.94824388 60.8876951,9.61035156 C60.3466767,9.27245925 59.9287122,8.79101875 59.6337888,8.16601562 C59.3388655,7.5410125 59.1894529,6.82031658 59.1855466,6.00390625 L59.1855466,5.5234375 C59.1855466,4.69140209 59.3330061,3.95703443 59.6279294,3.3203125 C59.9228528,2.68359057 60.3388643,2.19629075 60.8759763,1.85839844 C61.4130884,1.52050612 62.0292932,1.3515625 62.7246091,1.3515625 C63.4199251,1.3515625 64.0361299,1.51855302 64.5732419,1.85253906 C65.110354,2.18652511 65.5253889,2.66698905 65.8183591,3.29394531 C66.1113294,3.92090157 66.2597654,4.65038646 66.2636716,5.48242187 L66.2636716,5.95703125 Z M64.7812498,5.51171875 C64.7812498,4.56640152 64.6025406,3.84179939 64.2451169,3.33789062 C63.8876933,2.83398186 63.3808624,2.58203125 62.7246091,2.58203125 C62.0839809,2.58203125 61.5830094,2.8330053 61.2216794,3.33496094 C60.8603495,3.83691657 60.6757811,4.54687041 60.6679685,5.46484375 L60.6679685,5.95703125 C60.6679685,6.89453594 60.8505839,7.61913807 61.2158201,8.13085938 C61.5810563,8.64258068 62.0878871,8.8984375 62.7363279,8.8984375 C63.3925812,8.8984375 63.8974589,8.64844 64.2509763,8.1484375 C64.6044937,7.648435 64.7812498,6.91797355 64.7812498,5.95703125 L64.7812498,5.51171875 Z M78.8294268,10 L77.3470049,10 L73.5442705,3.94726562 L73.5442705,10 L72.0618486,10 L72.0618486,1.46875 L73.5442705,1.46875 L77.3587236,7.54492188 L77.3587236,1.46875 L78.8294268,1.46875 L78.8294268,10 Z M86.2343746,6.19140625 L82.7304684,6.19140625 L82.7304684,8.81640625 L86.8261715,8.81640625 L86.8261715,10 L81.2480465,10 L81.2480465,1.46875 L86.7851559,1.46875 L86.7851559,2.6640625 L82.7304684,2.6640625 L82.7304684,5.01953125 L86.2343746,5.01953125 L86.2343746,6.19140625 Z M95.3912756,7.890625 L96.7037756,1.46875 L98.1744788,1.46875 L96.2057288,10 L94.78776,10 L93.1647131,3.77148438 L91.50651,10 L90.0826819,10 L88.1139319,1.46875 L89.584635,1.46875 L90.9088538,7.87890625 L92.53776,1.46875 L93.7799475,1.46875 L95.3912756,7.890625 Z M104.384114,7.80273438 C104.384114,7.4277325 104.25228,7.13867289 103.988606,6.93554687 C103.724933,6.73242086 103.249352,6.52734479 102.561849,6.3203125 C101.874345,6.11328021 101.327476,5.88281377 100.921224,5.62890625 C100.143876,5.14062256 99.7552079,4.50391018 99.7552079,3.71875 C99.7552079,3.03124656 100.035479,2.46484598 100.596028,2.01953125 C101.156578,1.57421652 101.88411,1.3515625 102.778645,1.3515625 C103.372398,1.3515625 103.90169,1.46093641 104.366536,1.6796875 C104.831382,1.89843859 105.196613,2.20995892 105.462239,2.61425781 C105.727865,3.01855671 105.860677,3.46679441 105.860677,3.95898438 L104.384114,3.95898438 C104.384114,3.51366965 104.244467,3.16504032 103.965169,2.91308594 C103.685871,2.66113155 103.28646,2.53515625 102.766927,2.53515625 C102.282549,2.53515625 101.906576,2.63867084 101.638997,2.84570312 C101.371417,3.05273541 101.23763,3.34179502 101.23763,3.71289062 C101.23763,4.02539219 101.38216,4.28613177 101.671224,4.49511719 C101.960287,4.70410261 102.436845,4.90722558 103.100911,5.10449219 C103.764977,5.3017588 104.298175,5.52636593 104.70052,5.77832031 C105.102866,6.0302747 105.397785,6.31933431 105.585286,6.64550781 C105.772787,6.97168132 105.866536,7.35351344 105.866536,7.79101562 C105.866536,8.50195668 105.594078,9.06738071 105.049153,9.48730469 C104.504229,9.90722866 103.764978,10.1171875 102.83138,10.1171875 C102.214189,10.1171875 101.646812,10.0029308 101.129231,9.77441406 C100.611651,9.54589729 100.209311,9.23047076 99.9222001,8.828125 C99.6350893,8.42577924 99.491536,7.95703393 99.491536,7.421875 L100.973958,7.421875 C100.973958,7.90625242 101.134113,8.28124867 101.454427,8.546875 C101.774741,8.81250133 102.233721,8.9453125 102.83138,8.9453125 C103.347007,8.9453125 103.734699,8.84082136 103.994466,8.63183594 C104.254233,8.42285052 104.384114,8.14648609 104.384114,7.80273438 Z" id="Back-to-News"></path>
                <polygon id="Shape" fill-rule="nonzero" transform="translate(3.500000, 6.000000) rotate(-180.000000) translate(-3.500000, -6.000000) " points="1.33198381 0 0 1.41 4.3265857 6 0 10.59 1.33198381 12 7 6"></polygon>
            </g>
        </g>
    </g>
</svg>