<svg xmlns="http://www.w3.org/2000/svg" xmlns:xlink="http://www.w3.org/1999/xlink" width="102" height="25" viewBox="0 0 102 25">
  <defs>
    <polygon id="canadian_black_book_logo-a" points="0 25 102 25 102 .316 0 .316"/>
  </defs>
  <g fill="none" fill-rule="evenodd">
    <path fill="#FFF" d="M13.1963651.870945899C12.8539309.717087741 12.4628125.596834576 12.0235033.520893879 11.5789309.444788452 11.0894572.409371424 10.5465296.409371424 9.59570724.409371424 8.58962171.564712155 7.52580592.870945899 6.46577303 1.1834394 5.50919408 1.59855991 4.67383224 2.12009624 3.99175987 2.55465493 3.43583882 3.04456303 3.01692434 3.58520808 2.59455592 4.12914774 2.37942434 4.61543177 2.37942434 5.0404361 2.37942434 5.39839518 2.49981908 5.68634385 2.73337171 5.9052705 2.96692434 6.12436189 3.28386513 6.23390758 3.68600329 6.23390758 4.31231908 6.23390758 5.00902961 5.97017427 5.76511513 5.44633171 6.51939145 4.91968875 7.08847039 4.29157187 7.47547697 3.56099272 7.6221875 3.26530172 7.73139803 2.95050199 7.79800987 2.61807612 7.86495066 2.28894486 7.92777961 2.12009624 7.98912829 2.12009624 8.07054276 2.12009624 8.12613487 2.16852696 8.15590461 2.26192908 8.18748355 2.35763742 8.19833882 2.55877319 8.19833882 2.87093723 8.19833882 3.97496012 7.82037829 4.91540576 7.07185855 5.68634385 6.31922697 6.4564583 5.41873355 6.84258627 4.3753125 6.84258627 3.69159539 6.84258627 3.13550987 6.66797208 2.70195724 6.32088521 2.27761513 5.97017427 2.06264803 5.52260187 2.06264803 4.97470869 2.06264803 4.47145743 2.27399671 3.94168458 2.69652961 3.38819057 3.11889803 2.83535547 3.70623355 2.32600919 4.46824013 1.85718658 5.3409375 1.31538842 6.32120066.895161262 7.41659539.594857812 8.5096875.295542743 9.59570724.141519854 10.6777796.141519854 11.2190625.141519854 11.7289309.19423357 12.1975164.288953529 12.6736678.387132825 13.1295888.537202185 13.5878125.737349575 13.9210362.652019247 14.1971875.582008843 14.416102.537202185 14.6361678.487618346 14.7716941.460767297 14.8328783.460767297 14.8994901.460767297 14.9534375.471968961 14.9866612.490748223 15.0164309.50755072 15.0330428.537202185 15.0330428.572454482 15.0330428.663550373 14.8828783.738008497 14.5807401.801100225 14.3697204.836187793 14.1915954.870945899 14.0527796.910151725 14.5545888 1.12792526 14.9440625 1.41735651 15.2200493 1.78108115 15.4983388 2.14118172 15.6371546 2.5360404 15.6371546 2.96153893 15.6371546 3.62919109 15.322023 4.22765649 14.693898 4.75759407 14.0708717 5.28736692 13.1871546 5.69754552 12.0363322 5.98648257 12.7093586 6.18185278 13.2075493 6.47523756 13.537648 6.86877839 13.8690625 7.25754205 14.0361678 7.75568667 14.0361678 8.35843506 14.0361678 9.23331802 13.6022862 10.0516985 12.7424178 10.8157179 11.8805757 11.5754543 10.9580428 11.9597702 9.96264803 11.9597702 9.46791118 11.9597702 9.08222039 11.8558254 8.81001645 11.6472767 8.53764803 11.4420227 8.39866776 11.1469906 8.39866776 10.7626747 8.39866776 10.3151023 8.62284539 9.86176435 9.07120066 9.40167245 9.52169408 8.94207474 9.86643092 8.71161696 10.1054112 8.71161696 10.1462007 8.71161696 10.1833717 8.72463066 10.2165954 8.75065805 10.2499836 8.7742145 10.2664309 8.80584273 10.2664309 8.83994191 10.2664309 8.89001994 10.1572204 8.98572828 9.93863487 9.13118519 9.16215461 9.65453355 8.77268092 10.1928724 8.77268092 10.7440602 8.77268092 10.9903321 8.83978618 11.1837255 8.97679276 11.330665 9.10475329 11.4736509 9.28254934 11.5514037 9.49932566 11.5514037 9.77925987 11.5514037 10.0628125 11.4319742 10.3555757 11.20234 10.6466941 10.9715528 10.9580428 10.6226539 11.2784375 10.1548197 11.628602 9.63245968 11.8917599 9.13118519 12.0680757 8.65972689 12.2458717 8.18431507 12.331398 7.73542483 12.331398 7.30844373 12.331398 6.99265563 12.2642928 6.72365095 12.1307401 6.50110023 11.9975164 6.28036154 11.8399507 6.17032166 11.647023 6.17032166 11.5953783 6.17032166 11.4861678 6.18185278 11.3341941 6.20903329 11.1726809 6.23917895 11.0356743 6.25252211 10.9226809 6.25252211 10.7963651 6.25252211 10.7019572 6.22468268 10.6241612 6.17032166 10.5522862 6.11513699 10.5113322 6.04759754 10.5113322 5.96836223 10.5113322 5.89637507 10.5409375 5.83608375 10.6003125 5.79341859 10.6614967 5.74564678 10.7445559 5.72340818 10.8503125 5.72340818 10.8728454 5.72340818 10.9837007 5.73955176 11.1746546 5.77167418 11.369227 5.80725594 11.5526151 5.82455263 11.7195559 5.82455263 12.1958717 5.82455263 12.6960362 5.43891885 13.2262993 4.6709459 13.7526151 3.90198457 14.0156086 3.09826513 14.0156086 2.26687099 14.0156086 2.01252731 13.9712007 1.78108115 13.8822204 1.56907317 13.7968586 1.36184238 13.6708717 1.1834394 13.5078783 1.03600572 12.4034375 1.42476938 11.4175822 2.72712762 10.5465296 4.93830328 10.2962007 5.6003546 10.0850164 6.10541789 9.92761513 6.45201058 9.11577303 8.29402549 8.14850329 9.64349662 7.03106908 10.506519 5.90985197 11.3659173 4.55689145 11.7956988 2.97432566 11.7956988 2.07745066 11.7956988 1.35458882 11.6026348.811825658 11.2166716.266924342 10.8275785-.0000164473684 10.3151023-.0000164473684 9.68056095-.0000164473684 9.21832755.1503125 8.82495145.461332237 8.50389197.770871711 8.18019681 1.14899671 8.01941998 1.59949013 8.01941998 1.92169408 8.01941998 2.18501645 8.10590342 2.39060855 8.28035287 2.59998355 8.45364921 2.70014803 8.67455263 2.70014803 8.93960378 2.70014803 9.18488729 2.63320724 9.39047078 2.49603618 9.56113144 2.36100329 9.73228628 2.19981908 9.82470002 2.01807566 9.83244234L1.97350329 9.83244234C1.21215461 9.8940515.837648026 10.0907396.837648026 10.4269542.837648026 10.7195153 1.02860197 10.9685877 1.41774671 11.1782894 1.80508224 11.3898032 2.28304276 11.4939128 2.84652961 11.4939128 3.36347039 11.4939128 3.82498355 11.3825551 4.24570724 11.1613222 4.65722039 10.9369594 5.06478618 10.5844364 5.4596875 10.0993055 5.85985197 9.59341859 6.37481908 8.77849749 6.99768092 7.64828247 7.6221875 6.51543177 8.06511513 5.73806919 8.32629934 5.31438269 9.06774671 4.12815935 9.86643092 3.14554274 10.722352 2.36224987 11.575148 1.58373418 12.4034375 1.08509537 13.1963651.870945899M16.7324013 7.49152668C16.5560212 7.66211862 16.3381208 7.88347608 16.0729786 8.15856588 15.6476395 8.59468787 15.3934495 8.81423228 15.3051778 8.81423228 15.2610419 8.81423228 15.2276948 8.79956302 15.2002325 8.77368579 15.1726067 8.7438528 15.1578947 8.71022889 15.1578947 8.66572664 15.1578947 8.60803855 15.2940621 8.43942449 15.5647621 8.16433469 15.7211993 8.00775271 15.8521357 7.87474045 15.9534848 7.76513307L16.4156038 7.28368471C16.6313792 7.04996552 16.8321157 6.82086137 17.0124189 6.59686674 17.1948472 6.3713887 17.345563 6.16338191 17.4730667 5.97581319L20.4015638 1.15127542 22.1787685.949367089 18.2134051 8.31300515C18.0458523 8.6212244 17.8191246 9.0346008 17.5373089 9.5519806 16.975639 10.5554238 16.6938232 11.1468092 16.6938232 11.3210272 16.6938232 11.3956921 16.721449 11.4571711 16.7713062 11.504805 16.821 11.5530982 16.8927616 11.5778217 16.975639 11.5778217 17.2280308 11.5778217 17.9979567 10.9331984 19.2836184 9.6439519 19.5724632 9.34924815 19.7973927 9.12261635 19.9631475 8.96010075 20.719996 8.20652941 21.2965413 7.66788743 21.6927834 7.34878985 22.086737 7.03084604 22.3683893 6.86997866 22.5285862 6.86997866 22.5491829 6.86997866 22.5952804 6.87871429 22.6760327 6.89783377 22.7054566 6.90459152 22.7258899 6.90508599 22.7368421 6.90508599 22.2135868 7.20423997 21.4732483 7.85759885 20.5212211 8.86944803 20.3940444 9.00344923 20.301686 9.09838735 20.24104 9.15937191 20.1287387 9.28216514 19.9646186 9.45127367 19.7530934 9.67180701 18.257541 11.2389453 17.2079245 12.0253165 16.605388 12.0253165 16.2333389 12.0253165 15.9350131 11.9104347 15.7158049 11.6816602 15.4949621 11.4550284 15.3842954 11.1468092 15.3842954 10.7545301 15.3842954 10.4405421 15.4949621 10.0115075 15.7158049 9.4792936 15.9350131 8.94378326 16.2738786 8.28135911 16.7324013 7.49152668"/>
    <path fill="#FFF" d="M25.5900051,7.13444657 C25.5900051,6.92355291 25.5232984,6.74982886 25.3839555,6.61423158 C25.2503775,6.48022956 25.0761165,6.40828324 24.8606787,6.40828324 C24.6304171,6.40828324 24.3428372,6.57195713 23.9959624,6.88797857 C23.6471112,7.20431905 23.227765,7.69677647 22.7283708,8.36200078 C22.2105293,9.05211119 21.8376307,9.61093152 21.5983102,10.0426095 C21.358825,10.4739683 21.2418824,10.8226926 21.2418824,11.0816037 C21.2418824,11.205077 21.2735063,11.2934545 21.3291776,11.354553 C21.3866606,11.4123015 21.4812029,11.4429306 21.6149457,11.4429306 C21.8913255,11.4429306 22.2199176,11.3062166 22.6114282,11.0383721 C22.9991505,10.7651037 23.407626,10.3894194 23.8307605,9.9071717 C24.3744611,9.2931553 24.7994073,8.73720644 25.1169641,8.23437981 C25.4341914,7.7304365 25.5900051,7.36288811 25.5900051,7.13444657 M25.9072324,7.01145186 L26.3585319,6.14729835 L28.1826714,6.01265823 L26.2676132,9.82708954 C26.1080113,10.1317846 25.9798685,10.3911742 25.8793968,10.6028655 C25.7848544,10.8153544 25.7385715,10.9424968 25.7385715,10.9826974 C25.7385715,11.0546438 25.7570188,11.1119137 25.7998429,11.1569001 C25.8349256,11.2002912 25.8830203,11.2215082 25.9464329,11.2215082 C26.124482,11.2215082 26.7647015,10.6875739 27.8708794,9.62576745 C28.1492357,9.36095394 28.3663207,9.15053886 28.5166989,8.99643654 C29.3537442,8.19768878 29.9974225,7.62483015 30.4393337,7.27578679 C30.8848685,6.92770059 31.1966604,6.75317891 31.3803097,6.75317891 C31.3952981,6.75317891 31.4358162,6.76418622 31.5137231,6.78205316 C31.546994,6.78859373 31.569559,6.79130568 31.5789474,6.79130568 C31.1464245,7.01400427 30.381686,7.66279739 29.2812728,8.73321829 C28.9732691,9.03248946 28.7299956,9.26428105 28.55557,9.43098595 C28.4274273,9.55844739 28.2493781,9.7441359 28.0062693,9.97752276 C26.8353611,11.132014 25.9296326,11.7088608 25.2930368,11.7088608 C24.959174,11.7088608 24.6862531,11.6115498 24.47658,11.421235 C24.2708598,11.2307607 24.1682468,10.9790283 24.1682468,10.6665165 C24.1682468,10.4757231 24.1906471,10.3015205 24.2316594,10.1352942 C24.2687186,9.97066313 24.3301547,9.80363918 24.4154733,9.63087229 C23.9350205,10.3085397 23.45045,10.8226926 22.9658795,11.1698217 C22.4720854,11.5182269 21.9973973,11.6908343 21.5353918,11.6908343 C21.047033,11.6908343 20.6517341,11.5447083 20.3491658,11.2479895 C20.044621,10.9520684 19.8947368,10.5658554 19.8947368,10.0840863 C19.8947368,9.55318303 20.0281502,9.06136371 20.2987652,8.60575684 C20.5606507,8.14807613 20.9781851,7.70905999 21.5353918,7.28695363 C22.0937514,6.86660205 22.6206518,6.54946394 23.1218578,6.33585834 C23.6171344,6.12177416 24.0758457,6.01265823 24.4859683,6.01265823 C24.8924673,6.01265823 25.2095299,6.09640949 25.4490151,6.26375249 C25.6901474,6.43269075 25.8461258,6.68330643 25.9072324,7.01145186"/>
    <path fill="#FFF" d="M33.8179118,6.53223511 C33.7566901,6.49267261 33.6953034,6.46012926 33.6286361,6.44258138 C33.5651042,6.41913102 33.4982719,6.40844277 33.4368852,6.40844277 C33.1655956,6.40844277 32.8735137,6.55568546 32.5685604,6.84857559 C32.2563463,7.13923235 31.905023,7.58574623 31.5254815,8.18205522 C31.1611218,8.7485328 30.8599639,9.30400308 30.6220079,9.84415884 C30.3820717,10.3859099 30.2632587,10.7553726 30.2632587,10.9479207 C30.2632587,11.1068088 30.3150744,11.2267725 30.4045142,11.3063761 C30.4970893,11.3870964 30.6421401,11.4249041 30.8284454,11.4249041 C31.4753161,11.4249041 32.6225213,10.6124371 34.2789721,8.98925786 C34.5022415,8.76464495 34.6748503,8.59506858 34.7977888,8.47685966 C35.4060452,7.88565551 35.8986239,7.44647984 36.2723897,7.15502545 C36.6440103,6.86612347 36.9063889,6.71919983 37.0588656,6.71919983 C37.0737172,6.71919983 37.1202523,6.72781425 37.1963256,6.74631929 C37.2263589,6.75285986 37.2521017,6.75333844 37.2631579,6.75333844 C36.7387306,7.03745463 35.9989549,7.66279739 35.0453158,8.63686445 C34.8778225,8.80771703 34.7590095,8.93485942 34.6697348,9.01270821 L34.3517451,9.33558927 C32.7525555,10.916175 31.5013889,11.7088608 30.6031958,11.7088608 C30.0342137,11.7088608 29.5843746,11.5415178 29.2441075,11.208427 C28.9076358,10.8761339 28.7368421,10.4270676 28.7368421,9.86298293 C28.7368421,9.36845167 28.8683615,8.90119939 29.1157235,8.46441661 C29.3723265,8.02540047 29.7630891,7.59978453 30.292797,7.18852595 C30.7556725,6.82289187 31.2505615,6.5339899 31.7636025,6.32564866 C32.2768086,6.11698837 32.7282978,6.01265823 33.1355623,6.01265823 C33.5651042,6.01265823 33.8959653,6.10422627 34.1192347,6.28720284 C34.3461345,6.47081752 34.4595018,6.73371672 34.4595018,7.08228149 C34.4595018,7.33529007 34.3738575,7.54714088 34.2068592,7.72230067 C34.0411812,7.89442945 33.838539,7.9829665 33.5984378,7.9829665 C33.3886999,7.9829665 33.2192264,7.92362275 33.0855618,7.8058924 C32.9515672,7.68911921 32.8845699,7.53868599 32.8845699,7.35666658 C32.8845699,7.15502545 32.9700492,6.97811088 33.1469485,6.82161566 C33.3195574,6.66639665 33.5428268,6.57195713 33.8179118,6.53223511"/>
    <path fill="#FFF" d="M39.2323431 8.38140675C39.5715227 8.42195324 39.8359981 8.54837257 40.0303265 8.76066476 40.2227019 8.97905541 40.3214936 9.25200251 40.3214936 9.58065982 40.3214936 9.94376517 40.2337692 10.3421427 40.0522983 10.7738144 40.0007053 10.8954539 39.969782 10.9702836 39.969782 11.0014352 39.969782 11.0335757 39.9858946 11.0596177 40.0119353 11.0793965 40.0356974 11.0998346 40.0741074 11.1108777 40.1274907 11.1108777 40.2209116 11.1108777 40.5690426 10.7959007 41.1743252 10.163804 41.4879523 9.84256377 41.7355013 9.58708793 41.9264119 9.39572827 42.8563889 8.45969773 43.5490704 7.80584438 44.0021778 7.43021247 44.453495 7.05787703 44.772493 6.86997866 44.9520108 6.86997866 44.9686117 6.86997866 45.0127181 6.87887911 45.089538 6.8979986 45.1170435 6.90475634 45.1408056 6.90525081 45.1578947 6.90525081 44.8496385 7.08293014 44.4697704 7.37664496 44.0225221 7.7867249 43.5788544 8.19713449 42.9459036 8.84423009 42.1316448 9.72834135 42.0491285 9.82410358 41.9264119 9.95645656 41.7687032 10.1291912 40.605825 11.3932198 39.7204427 12.0253165 39.1040929 12.0253165 38.841896 12.0253165 38.6273861 11.9374657 38.4677243 11.7592919 38.306435 11.5834256 38.2239187 11.3495416 38.2239187 11.0578047 38.2239187 10.7157967 38.3687698 10.2836305 38.663843 9.75784469 38.9572887 9.23222373 39.1040929 8.91114828 39.1040929 8.7951128 39.1040929 8.74006187 39.0840741 8.69671339 39.0453386 8.66325429 39.001395 8.62880626 38.9463841 8.61397218 38.880306 8.61397218 38.8016957 8.61397218 38.6767006 8.63441025 38.5061343 8.67693461 38.3396368 8.72094239 38.2125259 8.74006187 38.1248014 8.74006187 38.0717436 8.74006187 38.0276372 8.72143686 37.9835308 8.68089037 37.9452836 8.64182729 37.9286827 8.59254517 37.9286827 8.53156062 37.9286827 8.39772424 38.0883445 8.31992772 38.4184098 8.29405049 38.7520557 8.26603056 38.9777957 8.21477056 39.0988847 8.12922736 39.2635919 8.01368635 39.5388091 7.65552569 39.9092375 7.05787703 40.286827 6.45693191 40.6994087 6.15975581 41.1342876 6.15975581 41.4277333 6.15975581 41.6676329 6.24793618 41.8658674 6.42957127 42.0582427 6.60807471 42.1518263 6.83289346 42.1518263 7.09776423 42.1518263 7.32439603 42.0767967 7.50652558 41.9392695 7.6499217 41.7960459 7.79463641 41.6183184 7.86468624 41.3945315 7.86468624 41.1892985 7.86468624 41.0239404 7.80057004 40.8883662 7.66805225 40.7565354 7.53652339 40.6940378 7.37137062 40.6940378 7.17209946 40.6940378 7.07650204 40.7121035 6.98288251 40.7453053 6.9016247 40.781925 6.82086137 40.8388889 6.75097637 40.9158716 6.68751946 40.8974804 6.67136679 40.8756714 6.659994 40.8589077 6.65554377 40.8370986 6.65455484 40.7986887 6.65455484 40.7453053 6.65455484 40.6225887 6.65455484 40.4188206 6.8979986 40.1274907 7.38999563 39.8303017 7.88347608 39.5295321 8.21477056 39.2323431 8.38140675zM36.5425059 7.4916915C36.3662432 7.66228344 36.1463624 7.88347608 35.8804222 8.15856588 35.4623069 8.5948527 35.2088988 8.8143971 35.1154779 8.8143971 35.0733246 8.8143971 35.0384952 8.79956302 35.0109898 8.77385061 34.9856001 8.7438528 34.9725798 8.71022889 34.9725798 8.66589146 34.9725798 8.60820337 35.1063637 8.43958931 35.3797906 8.16449951 35.535709 8.00775271 35.662169 7.87490527 35.7647041 7.76529789L36.2269257 7.28384954C36.4212541 7.08111709 36.6009347 6.88036252 36.7439955 6.68240994 36.8981237 6.48692971 36.9934976 6.3407316 37.0465554 6.24908994L39.8250936 1.13314488 41.5540305.949367089 35.9022313 11.8965896 34.1052632 12.0253165 36.5425059 7.4916915zM75.2721903 1.03913018C74.9334527.886696131 74.548161.767556028 74.107851.692318238 73.6678665.616917242 73.1837695.581828034 72.6497003.581828034 71.7033185.581828034 70.7110337.735730933 69.6599867 1.03913018 68.6094281 1.34873124 67.6685807 1.7600094 66.8395606 2.27671839 66.1630621 2.70725482 65.6107618 3.19262833 65.1945427 3.72826917 64.780114 4.26717413 64.5672026 4.74895712 64.5672026 5.17002761 64.5672026 5.52467343 64.6866804 5.80995685 64.9191251 6.02685712 65.1447331 6.24392059 65.4619842 6.35245233 65.8546008 6.35245233 66.4801504 6.35245233 67.1678806 6.09116013 67.9163263 5.57216626 68.6608654 5.0503979 69.2271644 4.42809487 69.6052939 3.70427795 69.7555365 3.41132386 69.8600389 3.09943792 69.92987 2.77008898 69.9956316 2.44400415 70.0583005 2.27671839 70.1188533 2.27671839 70.1956838 2.27671839 70.2492372 2.32470084 70.2782114 2.41723843 70.3096272 2.5120609 70.3259049 2.71133496 70.3259049 3.02060961 70.3259049 4.11441367 69.9518448 5.04615455 69.209259 5.80995685 68.4626038 6.57294312 67.5749843 6.95549709 66.542331 6.95549709 65.8601352 6.95549709 65.3133694 6.78249914 64.8898253 6.43862489 64.4661184 6.09116013 64.2515792 5.64773046 64.2515792 5.10490857 64.2515792 4.6063154 64.4625374 4.08144613 64.8844537 3.53307525 65.2972546 2.98535719 65.8819473 2.48072542 66.6305558 2.01624222 67.4942472 1.47945894 68.468301 1.06312141 69.5504383.765597561 70.6306222.46905295 71.7033185.316455696 72.7761775.316455696 73.3154556.316455696 73.8163185.368681494 74.2838122.462524726 74.7496782.559795275 75.2085448.708475594 75.657482.906770422 75.9877552.822229911 76.2628473.752867523 76.4795026.708475594 76.6937163.659350703 76.835169.632748187 76.8919779.632748187 76.9579024.632748187 77.0075492.643846169 77.0443366.66245161 77.0734736.679098583 77.0900768.708475594 77.0900768.743401597 77.0900768.833654304 76.9417875.907423244 76.6388607.969930997 76.4296931 1.00469379 76.2534063 1.03913018 76.1165113 1.07797312 76.6152581 1.29373095 77.0002242 1.58048322 77.2769441 1.94084123 77.5502456 2.29760871 77.6842105 2.68881258 77.6842105 3.1103727 77.6842105 3.77184507 77.3744471 4.36477109 76.758013 4.88980357 76.1381606 5.41467284 75.2630748 5.82105483 74.1298258 6.10731749 74.7846751 6.30087935 75.2798408 6.59154856 75.6078352 6.98144679 75.9348529 7.36661205 76.0997454 7.86014584 76.0997454 8.4573152 76.0997454 9.32410025 75.6742479 10.1349058 74.8214626 10.8918534 73.9650961 11.6445577 73.0550134 12.0253165 72.0757508 12.0253165 71.5805851 12.0253165 71.197084 11.9223337 70.9257358 11.7157154 70.6581314 11.5123612 70.5257942 11.2200599 70.5257942 10.8393012 70.5257942 10.3958716 70.7460307 9.94672969 71.189759 9.49089639 71.6357663 9.03555271 71.97662 8.80722805 72.2077624 8.80722805 72.2517121 8.80722805 72.2865462 8.82012129 72.3195898 8.84590778 72.3524706 8.86924619 72.3690738 8.90058166 72.3690738 8.93436523 72.3690738 8.98397974 72.2627809 9.0788022 72.0446605 9.22291276 71.2779838 9.74141702 70.8928549 10.274773 70.8928549 10.820859 70.8928549 11.0648514 70.9589422 11.2564548 71.0909538 11.4020342 71.2244304 11.5436967 71.3989267 11.6207297 71.6134659 11.6207297 71.8905113 11.6207297 72.1745561 11.5024057 72.4626702 11.274897 72.7488311 11.0462459 73.0550134 10.7005764 73.370474 10.2370725 73.7227221 9.71954746 73.9813737 9.22291276 74.1555444 8.75581828 74.3282502 8.28480686 74.4163122 7.84007155 74.4163122 7.41704258 74.4163122 7.10417741 74.3500622 6.83766263 74.21626 6.61717184 74.0839228 6.39847631 73.924402 6.28945496 73.7389997 6.28945496 73.6841441 6.28945496 73.5833855 6.30087935 73.4256552 6.32780828 73.2662972 6.35767491 73.1321694 6.37089456 73.0183887 6.37089456 72.9029803 6.37089456 72.8038495 6.34331281 72.7266935 6.28945496 72.6497003 6.23478108 72.6148661 6.16786677 72.6148661 6.08936487 72.6148661 6.01804401 72.6441659 5.95831076 72.7029281 5.9160405 72.7636437 5.86871087 72.8424275 5.84667811 72.9469299 5.84667811 72.9726486 5.84667811 73.0791043 5.86267226 73.2695527 5.89449736 73.4678143 5.92974977 73.6439383 5.94688636 73.8107841 5.94688636 74.2821845 5.94688636 74.7771874 5.56482201 75.2966068 4.80395741 75.8228628 4.04211358 76.0828166 3.24583336 76.0828166 2.4221346 76.0828166 2.17014512 76.0372392 1.94084123 75.9511305 1.73079559 75.8629058 1.52548293 75.7400096 1.34873124 75.5749544 1.20266221 74.4822366 1.58782747 73.5083456 2.8781311 72.6497003 5.06884013 72.3967458 5.72476352 72.1931126 6.22515194 72.0374984 6.56853657 71.2306159 8.39350181 70.2782114 9.73048224 69.1670999 10.5855165 68.0608717 11.4369602 66.7186178 11.8627637 65.159383 11.8627637 64.2644385 11.8627637 63.5550591 11.6714867 63.0156182 11.2890959 62.4763401 10.9036042 62.2105263 10.3958716 62.2105263 9.7672035 62.2105263 9.30924854 62.3607689 8.91951352 62.6687418 8.60142576 62.9768775 8.28072672 63.3512631 8.12143804 63.7966192 8.12143804 64.1141959 8.12143804 64.3748009 8.20712099 64.5782713 8.37995574 64.7817418 8.55164805 64.8860815 8.77050679 64.8860815 9.03310463 64.8860815 9.2761178 64.8185293 9.47979841 64.6827738 9.64887943 64.5436 9.81845007 64.3896135 9.91000842 64.2094201 9.91767909L64.1656333 9.91767909C63.4119787 9.97871799 63.0377558 10.1735855 63.0377558 10.5066882 63.0377558 10.7965413 63.2301575 11.0433082 63.6151236 11.251069 63.9984619 11.460625 64.4682345 11.563771 65.0291619 11.563771 65.5391402 11.563771 66.0014251 11.453444 66.4104821 11.2342588 66.8211669 11.0119728 67.222899 10.6627127 67.6153528 10.1820722 68.0113877 9.68086773 68.5174594 8.87348953 69.1374746 7.75373578 69.7555365 6.63137073 70.1942188 5.86120341 70.4523821 5.44143856 71.1845502 4.26619489 71.97662 3.29267337 72.8202899 2.51663065 73.6655876 1.74532089 74.4822366 1.25129748 75.2721903 1.03913018M80.4990415 11.0157308C80.4752383 10.9479453 80.4548589 10.8938843 80.4437724 10.8523761 80.432849 10.8130438 80.4271428 10.7799042 80.4271428 10.7542963 80.4271428 10.5638274 80.5153451 10.3939452 80.7031621 10.2411349 80.8847838 10.0886594 81.1029254 10.0160201 81.3513917 10.0160201L81.3897051 10.0160201C81.7974572 9.5058714 82.11717 9.02049369 82.3393876 8.5515184 82.5707351 8.0801999 82.684697 7.68587235 82.684697 7.36368198 82.684697 7.06894055 82.6186676 6.83746559 82.4993255 6.67645409 82.3816138 6.5124299 82.2107525 6.4292462 81.9975019 6.4292462 81.7038747 6.4292462 81.3238387 6.67645409 80.8626109 7.17120461 80.4031766 7.66528565 79.9311885 8.33427003 79.4515377 9.17949673 79.224103 9.58152337 79.0530786 9.93886179 78.9396058 10.2526836 78.8236875 10.561819 78.7685815 10.8260988 78.7685815 11.042845 78.7685815 11.2406783 78.8070579 11.3841158 78.8897169 11.4728227 78.9757997 11.5633708 79.1042718 11.6104022 79.279046 11.6104022 79.4515377 11.6104022 79.6537018 11.555839 79.8705392 11.4539097 80.0909634 11.3534868 80.3003011 11.2050281 80.4990415 11.0157308M81.6670287 10.6428268C82.2053723 10.5638274 82.8831114 10.1070703 83.700898 9.27205324 83.8331199 9.13798857 83.9302891 9.03639399 83.9873516 8.97580546 84.7586731 8.19836427 85.3519597 7.64001253 85.7615052 7.29941127 86.1749635 6.96182271 86.4671233 6.79026679 86.6324415 6.79026679 86.6492341 6.79026679 86.698797 6.79930486 86.7791735 6.81871997 86.808683 6.82558221 86.8290624 6.82608432 86.8421053 6.82608432 86.3901705 7.0751333 85.6773788 7.71231707 84.7017737 8.73646404 84.2169057 9.24878858 83.8310004 9.64345087 83.5463402 9.92095302 83.1257084 10.3467464 82.7345859 10.6545429 82.3706904 10.8373127 82.0069579 11.0249363 81.6210526 11.115819 81.2188438 11.115819L81.1141749 11.115819C80.6917496 11.4495581 80.3115505 11.6840457 79.9695018 11.8196167 79.6372352 11.9546856 79.2697529 12.0253165 78.8770001 12.0253165 78.3275701 12.0253165 77.8868848 11.8497436 77.5542922 11.500439 77.2182758 11.1516366 77.0526316 10.6955489 77.0526316 10.1350213 77.0526316 9.63541703 77.2182758 9.10920065 77.5542922 8.56122595 77.8868848 8.00956908 78.3384935 7.5163249 78.9097703 7.0786481 79.3506186 6.74273325 79.80989 6.48414409 80.2895407 6.29601839 80.7724522 6.10755794 81.2097138 6.01265823 81.6063794 6.01265823 82.14456 6.01265823 82.5578553 6.1567652 82.8464283 6.44698759 83.1328819 6.73921845 83.2761902 7.14978104 83.2761902 7.68034909 83.2761902 8.14363375 83.1550548 8.60256674 82.9052842 9.05999339 82.6626872 9.51926113 82.2513483 10.0451428 81.6670287 10.6428268"/>
    <path fill="#FFF" d="M87.7619256,11.0157308 C87.7364773,10.9479453 87.7195117,10.8938843 87.7071137,10.8523761 C87.6960208,10.8130438 87.6904744,10.7799042 87.6904744,10.7542963 C87.6904744,10.5638274 87.7806857,10.3939452 87.9624133,10.2411349 C88.148056,10.0886594 88.3650199,10.0160201 88.618525,10.0160201 L88.6555557,10.0160201 C89.0635455,9.5058714 89.3795297,9.02049369 89.605792,8.5515184 C89.8356432,8.0801999 89.9475508,7.68587235 89.9475508,7.36368198 C89.9475508,7.06894055 89.8850718,6.83746559 89.7656601,6.67645409 C89.6441277,6.5124299 89.4788763,6.4292462 89.2620756,6.4292462 C88.9641989,6.4292462 88.5893246,6.67645409 88.1258702,7.17120461 C87.6646997,7.66528565 87.1958621,8.33427003 86.7107114,9.17949673 C86.4883642,9.58152337 86.3136512,9.93886179 86.1979916,10.2526836 C86.0857576,10.561819 86.0270306,10.8260988 86.0270306,11.042845 C86.0270306,11.2406783 86.0709127,11.3841158 86.1541094,11.4728227 C86.2404055,11.5633708 86.3673212,11.6104022 86.5397504,11.6104022 C86.7160947,11.6104022 86.9129934,11.555839 87.1351775,11.4539097 C87.3557302,11.3534868 87.5599698,11.2050281 87.7619256,11.0157308 M88.9366299,10.6428268 C89.4677834,10.5638274 90.1459178,10.1070703 90.967444,9.27205324 C91.0981117,9.13798857 91.1974583,9.03639399 91.2578167,8.97580546 C92.0266517,8.19836427 92.6162061,7.64001253 93.0282742,7.29941127 C93.4434419,6.96182271 93.7338145,6.79026679 93.8992291,6.79026679 C93.917826,6.79026679 93.9656233,6.79930486 94.0481674,6.81871997 C94.0757365,6.82558221 94.0979223,6.82608432 94.1052632,6.82608432 C93.6566537,7.0751333 92.9450776,7.71231707 91.9693928,8.73646404 C91.4842421,9.24878858 91.0981117,9.64345087 90.8131224,9.92095302 C90.3924083,10.3467464 89.9973057,10.6545429 89.6333611,10.8373127 C89.2694165,11.0249363 88.8872013,11.115819 88.4844315,11.115819 L88.3761128,11.115819 C87.9553987,11.4495581 87.5748147,11.6840457 87.2382761,11.8196167 C86.9020637,11.9546856 86.5343671,12.0253165 86.1355125,12.0253165 C85.5896772,12.0253165 85.1485717,11.8497436 84.8141538,11.500439 C84.4776151,11.1516366 84.3157895,10.6955489 84.3157895,10.1350213 C84.3157895,9.63541703 84.4776151,9.10920065 84.8141538,8.56122595 C85.1485717,8.00956908 85.6006069,7.5163249 86.1702593,7.0786481 C86.6097335,6.74273325 87.0728615,6.48414409 87.5545865,6.29601839 C88.0320701,6.10755794 88.47497,6.01265823 88.8705619,6.01265823 C89.4070988,6.01265823 89.8207983,6.1567652 90.1074189,6.44698759 C90.3976285,6.73921845 90.5431411,7.14978104 90.5431411,7.68034909 C90.5431411,8.14363375 90.4201405,8.60256674 90.1718556,9.05999339 C89.9256913,9.51926113 89.5118287,10.0451428 88.9366299,10.6428268"/>
    <path fill="#FFF" d="M95.7591237 8.38140675C96.0893712 8.42195324 96.3572803 8.54837257 96.5512946 8.76066476 96.7497035 8.97905541 96.8468735 9.25200251 96.8468735 9.58065982 96.8468735 9.94376517 96.754912 10.3421427 96.577174 10.7738144 96.5223227 10.8954539 96.4948156 10.9702836 96.4948156 11.0014352 96.4948156 11.0335757 96.5075112 11.0596177 96.5330651 11.0793965 96.5625253 11.0998346 96.6009375 11.1108777 96.64879 11.1108777 96.7441696 11.1108777 97.094437 10.7959007 97.6997552 10.163804 98.0145402 9.84256377 98.2624293 9.58708793 98.4494448 9.39572827 99.3794766 8.45969773 100.072524 7.80584438 100.523543 7.43021247 100.978467 7.05787703 101.294066 6.86997866 101.473594 6.86997866 101.495893 6.86997866 101.539839 6.87887911 101.607712 6.8979986 101.638962 6.90475634 101.666144 6.90525081 101.684211 6.90525081 101.37089 7.08293014 100.994906 7.37664496 100.545678 7.7867249 100.105565 8.19713449 99.4729029 8.84423009 98.656643 9.72834135 98.5744473 9.82410358 98.4494448 9.95645656 98.2844024 10.1291912 97.1271525 11.3932198 96.2435084 12.0253165 95.6310287 12.0253165 95.3670259 12.0253165 95.1521779 11.9374657 94.9890886 11.7592919 94.8274643 11.5834256 94.7468963 11.3495416 94.7468963 11.0578047 94.7468963 10.7157967 94.8935463 10.2836305 95.1870093 9.75784469 95.4824254 9.23222373 95.6310287 8.91114828 95.6310287 8.7951128 95.6310287 8.74006187 95.60873 8.69671339 95.5665742 8.66325429 95.5262088 8.62880626 95.4731479 8.61397218 95.4052754 8.61397218 95.3284509 8.61397218 95.2036112 8.63441025 95.0310817 8.67693461 94.8606681 8.72094239 94.7302944 8.74006187 94.6511912 8.74006187 94.5929218 8.74006187 94.5470224 8.72143686 94.5084474 8.68089037 94.4666172 8.64182729 94.4496897 8.59254517 94.4496897 8.53156062 94.4496897 8.39772424 94.6148949 8.31992772 94.9448169 8.29405049 95.2750644 8.26603056 95.5006549 8.21477056 95.6219139 8.12922736 95.7866307 8.01368635 96.0600738 7.65552569 96.4358951 7.05787703 96.8136697 6.45693191 97.2153705 6.15975581 97.6553207 6.15975581 97.9486209 6.15975581 98.1947196 6.24793618 98.3836883 6.42957127 98.5798185 6.60807471 98.6734077 6.83289346 98.6734077 7.09776423 98.6734077 7.32439603 98.6037448 7.50652558 98.4642563 7.6499217 98.321187 7.79463641 98.1414959 7.86468624 97.9157427 7.86468624 97.7160316 7.86468624 97.545618 7.80057004 97.4132911 7.66805225 97.2812898 7.53652339 97.2153705 7.37137062 97.2153705 7.17209946 97.2153705 7.07650204 97.2319724 6.98288251 97.2669666 6.9016247 97.305216 6.82086137 97.3602302 6.75097637 97.440961 6.68751946 97.4206155 6.67136679 97.402386 6.659994 97.382366 6.65554377 97.3602302 6.65455484 97.3219807 6.65455484 97.2669666 6.65455484 97.1494512 6.65455484 96.942253 6.8979986 96.64879 7.38999563 96.3481655 7.88347608 96.0561674 8.21477056 95.7591237 8.38140675zM93.0616409 7.4916915C92.887321 7.66228344 92.6710081 7.88347608 92.4066798 8.15856588 91.9851218 8.5948527 91.7300711 8.8143971 91.6384352 8.8143971 91.5982325 8.8143971 91.5650287 8.79956302 91.5375217 8.77385061 91.5064338 8.7438528 91.4955286 8.71022889 91.4955286 8.66589146 91.4955286 8.60820337 91.6311108 8.43958931 91.9027634 8.16449951 92.0567379 8.00775271 92.1867861 7.87490527 92.2875368 7.76529789L92.7481581 7.28384954C92.9477063 7.08111709 93.1220263 6.88036252 93.2707923 6.68240994 93.4210232 6.48692971 93.5180303 6.3407316 93.5679988 6.24908994L96.3481655 1.13314488 98.0791574.949367089 92.4252349 11.8965896 90.6315789 12.0253165 93.0616409 7.4916915zM99.6890709 4.34659279L100.020064 4.34659279C100.174278 4.34659279 100.284921 4.32287655 100.346389 4.27419586 100.404277 4.22863573 100.432288 4.16341609 100.432288 4.08602627 100.432288 4.03640941 100.419994 3.99147339 100.390116 3.95075012 100.363662 3.91236727 100.325381 3.88225389 100.272783 3.86134616 100.225164 3.84168665 100.132729 3.83154484 99.9992116 3.83154484L99.6890709 3.83154484 99.6890709 4.34659279zM99.4154998 5.30553999L99.4154998 3.602808 99.9959436 3.602808C100.199177 3.602808 100.342809 3.61809873 100.430732 3.64836814 100.52021 3.6845666 100.595373 3.73449551 100.642679 3.81360163 100.695277 3.89270776 100.719865 3.97680677 100.719865 4.06340223 100.719865 4.1876004 100.679405 4.29635182 100.588214 4.38872031 100.503871 4.47952852 100.384825 4.53382621 100.237458 4.54334391 100.299082 4.56971262 100.3481 4.59951394 100.383425 4.63618049 100.44785 4.70311644 100.535616 4.8115558 100.635677 4.97039215L100.840933 5.30553999 100.505738 5.30553999 100.353391 5.03717208C100.236058 4.82466214 100.140977 4.69266257 100.069238 4.64210955 100.020064 4.59951394 99.9464581 4.58125868 99.8484206 4.58125868L99.6890709 4.58125868 99.6890709 5.30553999 99.4154998 5.30553999zM100.106275 3.11022806C99.8853014 3.11022806 99.6694634 3.16514987 99.4589163 3.27936226 99.2485249 3.39185834 99.0854404 3.55646773 98.964372 3.7691337 98.8437703 3.98195569 98.785726 4.20164291 98.785726 4.43006769 98.785726 4.65927261 98.8437703 4.8770875 98.9629714 5.08600879 99.0785933 5.29571023 99.2419891 5.4590714 99.4486458 5.57531215 99.6624607 5.69092879 99.8800105 5.75193568 100.106275 5.75193568 100.332228 5.75193568 100.551645 5.69092879 100.758301 5.57531215 100.968537 5.4590714 101.131777 5.29571023 101.245843 5.08600879 101.363332 4.8770875 101.421221 4.65927261 101.421221 4.43006769 101.421221 4.20164291 101.358197 3.98195569 101.245843 3.7691337 101.12493 3.55646773 100.961846 3.39185834 100.753011 3.27936226 100.540752 3.16514987 100.326937 3.11022806 100.106275 3.11022806zM100.106275 2.84810127C100.372843 2.84810127 100.630386 2.9155053 100.88435 3.05265378 101.135357 3.18949021 101.330186 3.38421298 101.471796 3.63557385 101.613873 3.89052337 101.684211 4.15592675 101.684211 4.43006769 101.684211 4.70311644 101.613873 4.96524323 101.477398 5.21832042 101.337034 5.46812101 101.145783 5.66284378 100.890107 5.80560926 100.640656 5.94369392 100.383425 6.01265823 100.106275 6.01265823 99.8308361 6.01265823 99.5731377 5.94369392 99.3205746 5.80560926 99.0698789 5.66284378 98.8734928 5.46812101 98.7331281 5.21832042 98.5946308 4.96524323 98.5263158 4.70311644 98.5263158 4.43006769 98.5263158 4.15592675 98.5999217 3.89052337 98.7385746 3.63557385 98.8787837 3.38421298 99.0750142 3.18949021 99.3311565 3.05265378 99.5834083 2.9155053 99.841418 2.84810127 100.106275 2.84810127z"/>
    <polygon fill="#FFF" points="56.816 13.608 56.169 13.608 56.169 13.046 56.412 12.694 59.601 10.266 59.273 10.145 59.109 9.96 58.915 9.655 58.915 9.285 59.434 7.58 58.125 7.798 57.85 7.798 57.483 7.671 57.172 7.249 57.087 7.004 55.859 8.476 55.725 8.587 55.596 8.668 55.406 8.705 55.196 8.689 55.024 8.617 54.859 8.471 54.789 8.282 54.749 8.107 54.797 7.914 55.425 4.578 55 4.864 54.425 4.98 54.056 4.714 53.854 4.522 53.078 2.618 52.246 4.526 52.011 4.741 51.68 4.981 51.105 4.864 50.676 4.577 51.347 8.105 51.311 8.31 51.233 8.478 51.075 8.617 50.903 8.689 50.691 8.705 50.507 8.667 50.342 8.56 50.204 8.438 49.014 7.002 48.927 7.248 48.623 7.67 48.254 7.798 47.926 7.793 46.666 7.58 47.188 9.285 47.188 9.654 46.953 10.014 46.823 10.147 46.502 10.265 49.694 12.696 49.93 13.049 49.93 13.608 49.283 13.608 49.283 13.251 49.219 13.155 45.158 10.063 46.469 9.577 46.541 9.462 46.541 9.385 45.737 6.757 48.006 7.141 48.147 7.141 48.221 7.116 48.349 6.937 48.785 5.705 50.658 7.965 49.75 3.169 51.356 4.246 51.532 4.281 51.619 4.218 51.708 4.135 53.098 .949 54.399 4.139 54.482 4.218 54.571 4.282 54.748 4.246 56.35 3.167 55.447 7.959 57.322 5.702 57.75 6.936 57.882 7.115 57.957 7.141 58.098 7.141 60.362 6.757 59.563 9.384 59.563 9.462 59.639 9.582 60.947 10.062 56.883 13.156 56.816 13.253"/>
    <mask id="canadian_black_book_logo-b" fill="#fff">
      <use xlink:href="#canadian_black_book_logo-a"/>
    </mask>
    <polygon fill="#FFF" points="0 13.924 49.895 13.924 49.895 13.291 0 13.291" mask="url(#canadian_black_book_logo-b)"/>
    <polygon fill="#FFF" points="0 13.924 49.895 13.924 49.895 13.291 0 13.291" mask="url(#canadian_black_book_logo-b)"/>
    <polygon fill="#FFF" points="56.211 13.924 101.684 13.924 101.684 13.291 56.211 13.291" mask="url(#canadian_black_book_logo-b)"/>
    <path fill="#FFF" d="M12.3157895 20.8454879L12.3157895 22.0409146C12.0938984 21.7903977 11.8951494 21.6184528 11.7195423 21.5250798 11.5466579 21.4291874 11.3436548 21.3811625 11.1103629 21.3811625 10.7445149 21.3811625 10.4406058 21.4997289 10.1988058 21.7370192 9.95683561 21.9743095 9.83585053 22.2714341 9.83585053 22.6285505 9.83585053 22.9938547 9.9524114 23.2936562 10.1857033 23.5281122 10.421888 23.7625682 10.7229043 23.879875 11.0887523 23.879875 11.3220442 23.879875 11.5279401 23.8334247 11.70661 23.7400516 11.8794945 23.6495129 12.0824976 23.473474 12.3157895 23.21225L12.3157895 24.3996462C11.9211841 24.5889116 11.5265788 24.6835443 11.1319734 24.6835443 10.4809341 24.6835443 9.93658635 24.4890828 9.49875988 24.0998448 9.06093342 23.7080875 8.84210526 23.2216975 8.84210526 22.6405174 8.84210526 22.0594947 9.06382617 21.5691682 9.50743814 21.1693805 9.9510501 20.7695928 10.4953979 20.5696203 11.1406517 20.5696203 11.5553361 20.5696203 11.9470487 20.6615761 12.3157895 20.8454879M13.5853418 22.6126472C13.5853418 22.9858244 13.6890472 23.2897197 13.8962946 23.5241757 14.1092581 23.761466 14.3774223 23.8800324 14.7007871 23.8800324 15.0463628 23.8800324 15.3254691 23.7654025 15.5384325 23.5361426 15.7512327 23.2988523 15.8577145 22.9977912 15.8577145 22.6326444 15.8577145 22.2674977 15.7512327 21.9664366 15.5384325 21.7291463 15.3254691 21.4972096 15.0491391 21.38132 14.7091161 21.38132 14.3883644 21.38132 14.1202002 21.4986267 13.9046237 21.7330828 13.6916602 21.9703731 13.5853418 22.2634037 13.5853418 22.6126472zM15.7997374 20.6776369L16.7368421 20.6776369 16.7368421 24.5715912 15.7997374 24.5715912 15.7997374 24.1639305C15.4154559 24.5103397 15.0021043 24.6835443 14.5598457 24.6835443 14.0013065 24.6835443 13.5397768 24.4890828 13.1747665 24.0998448 12.8126959 23.7027339 12.6315789 23.2068964 12.6315789 22.6126472 12.6315789 22.0289477 12.8126959 21.5425577 13.1747665 21.1533197 13.5370004 20.7642392 13.9902011 20.5696203 14.5348584 20.5696203 15.0048806 20.5696203 15.4263981 20.7562088 15.7997374 21.129386L15.7997374 20.6776369zM17.6842105 20.6806587L18.6198534 20.6806587 18.6198534 21.0505169C18.9454858 20.730027 19.3126987 20.5696203 19.721166 20.5696203 20.190455 20.5696203 20.5560373 20.7162686 20.8184022 21.0094035 21.0445675 21.2586734 21.1578947 21.6655984 21.1578947 22.2300166L21.1578947 24.6835443 20.2220888 24.6835443 20.2220888 22.4478849C20.2220888 22.0532616 20.1669743 21.7806834 20.0565821 21.6299884 19.948962 21.4765417 19.7529629 21.3998184 19.4685849 21.3998184 19.1594216 21.3998184 18.9401048 21.501145 18.8103084 21.70396 18.683284 21.9040234 18.6198534 22.2533249 18.6198534 22.7520265L18.6198534 24.6835443 17.6842105 24.6835443 17.6842105 20.6806587zM22.7432365 22.6126472C22.7432365 22.9858244 22.8469419 23.2897197 23.0541894 23.5241757 23.2671528 23.761466 23.535317 23.8800324 23.8586818 23.8800324 24.2042575 23.8800324 24.4833638 23.7654025 24.6963273 23.5361426 24.9091275 23.2988523 25.0156092 22.9977912 25.0156092 22.6326444 25.0156092 22.2674977 24.9091275 21.9664366 24.6963273 21.7291463 24.4833638 21.4972096 24.2070339 21.38132 23.8670109 21.38132 23.5462591 21.38132 23.278095 21.4986267 23.0625185 21.7330828 22.849555 21.9703731 22.7432365 22.2634037 22.7432365 22.6126472zM24.9576322 20.6776369L25.8947368 20.6776369 25.8947368 24.5715912 24.9576322 24.5715912 24.9576322 24.1639305C24.5733507 24.5103397 24.159999 24.6835443 23.7177405 24.6835443 23.1592013 24.6835443 22.6976715 24.4890828 22.3326612 24.0998448 21.9705906 23.7027339 21.7894737 23.2068964 21.7894737 22.6126472 21.7894737 22.0289477 21.9705906 21.5425577 22.3326612 21.1533197 22.6948951 20.7642392 23.1480958 20.5696203 23.6927532 20.5696203 24.1627754 20.5696203 24.5842928 20.7562088 24.9576322 21.129386L24.9576322 20.6776369zM27.4800786 22.8041844C27.4800786 23.199872 27.583784 23.5220985 27.7910315 23.7706972 28.0039949 24.0223011 28.2721591 24.1480195 28.5955239 24.1480195 28.9410996 24.1480195 29.2202059 24.026475 29.4331694 23.7833859 29.6459696 23.531782 29.7524513 23.2125607 29.7524513 22.8253879 29.7524513 22.4382151 29.6459696 22.1189937 29.4331694 21.8673899 29.2202059 21.6214625 28.943876 21.4985823 28.603853 21.4985823 28.2831012 21.4985823 28.0149371 21.6229651 27.7993606 21.8715638 27.5863971 22.1231676 27.4800786 22.4338742 27.4800786 22.8041844zM29.6944743 17.721519L30.6315789 17.721519 30.6315789 24.8812937 29.6944743 24.8812937 29.6944743 24.4490426C29.3266876 24.8163475 28.9107229 25 28.4462535 25 27.893267 25 27.4345136 24.7938084 27.0695033 24.3810912 26.7074327 23.9600262 26.5263158 23.4342793 26.5263158 22.8041844 26.5263158 22.1881138 26.7074327 21.67372 27.0695033 21.2611698 27.4289609 20.8457813 27.880855 20.6379201 28.4255124 20.6379201 28.8983109 20.6379201 29.3211349 20.8357639 29.6944743 21.2314515L29.6944743 17.721519zM31.4096971 24.6835443L32.3797766 24.6835443 32.3797766 20.6386034 31.4096971 20.6386034 31.4096971 24.6835443zM31.2631579 18.9565099C31.2631579 18.7931094 31.3247961 18.6519535 31.448412 18.5330424 31.5720279 18.4139677 31.7200954 18.3544304 31.8926143 18.3544304 32.0678501 18.3544304 32.2172759 18.4139677 32.3408919 18.5330424 32.4645078 18.6491729 32.5263158 18.7919644 32.5263158 18.9607626 32.5263158 19.1295608 32.4645078 19.2736608 32.3408919 19.3925719 32.2201626 19.5116466 32.0720951 19.5711839 31.8968594 19.5711839 31.7214538 19.5711839 31.5720279 19.5116466 31.448412 19.3925719 31.3247961 19.2736608 31.2631579 19.1282523 31.2631579 18.9565099zM33.7958681 22.6126472C33.7958681 22.9858244 33.8995735 23.2897197 34.1068209 23.5241757 34.3197844 23.761466 34.5879486 23.8800324 34.9113134 23.8800324 35.2568891 23.8800324 35.5359954 23.7654025 35.7489589 23.5361426 35.961759 23.2988523 36.0682408 22.9977912 36.0682408 22.6326444 36.0682408 22.2674977 35.961759 21.9664366 35.7489589 21.7291463 35.5359954 21.4972096 35.2596655 21.38132 34.9196425 21.38132 34.5988907 21.38132 34.3307266 21.4986267 34.11515 21.7330828 33.9021865 21.9703731 33.7958681 22.2634037 33.7958681 22.6126472zM36.0102638 20.6776369L36.9473684 20.6776369 36.9473684 24.5715912 36.0102638 24.5715912 36.0102638 24.1639305C35.6259822 24.5103397 35.2126306 24.6835443 34.770372 24.6835443 34.2118328 24.6835443 33.7503031 24.4890828 33.3852928 24.0998448 33.0232222 23.7027339 32.8421053 23.2068964 32.8421053 22.6126472 32.8421053 22.0289477 33.0232222 21.5425577 33.3852928 21.1533197 33.7475267 20.7642392 34.2007274 20.5696203 34.7453848 20.5696203 35.2154069 20.5696203 35.6369244 20.7562088 36.0102638 21.129386L36.0102638 20.6776369zM37.8947368 20.6806587L38.8303797 20.6806587 38.8303797 21.0505169C39.1560121 20.730027 39.523225 20.5696203 39.9316923 20.5696203 40.4009813 20.5696203 40.7665636 20.7162686 41.0289285 21.0094035 41.2550938 21.2586734 41.3684211 21.6655984 41.3684211 22.2300166L41.3684211 24.6835443 40.4326151 24.6835443 40.4326151 22.4478849C40.4326151 22.0532616 40.3775006 21.7806834 40.2671084 21.6299884 40.1594883 21.4765417 39.9634892 21.3998184 39.6791112 21.3998184 39.3699479 21.3998184 39.1506311 21.501145 39.0208347 21.70396 38.8938104 21.9040234 38.8303797 22.2533249 38.8303797 22.7520265L38.8303797 24.6835443 37.8947368 24.6835443 37.8947368 20.6806587zM45.1515003 22.8465914C45.1515003 22.4509038 45.0461618 22.1286772 44.8363013 21.8800786 44.6233378 21.6258034 44.3566435 21.4985823 44.0358917 21.4985823 43.6930924 21.4985823 43.4139861 21.6214625 43.1984096 21.8673899 42.9854461 22.1104789 42.8789643 22.426862 42.8789643 22.8168731 42.8789643 23.2182372 42.9841395 23.5389612 43.1941634 23.779212 43.4041872 24.0251393 43.6806804 24.1480195 44.0234798 24.1480195 44.3470079 24.1480195 44.6150087 24.0251393 44.8281355 23.779212 45.043712 23.5306133 45.1515003 23.2195729 45.1515003 22.8465914zM42.9330218 17.721519L42.9330218 21.2314515C43.3061978 20.8357639 43.7291851 20.6379201 44.2018203 20.6379201 44.7464777 20.6379201 45.1996784 20.8457813 45.5620756 21.2611698 45.9239829 21.6738869 46.1052632 22.1881138 46.1052632 22.8041844 46.1052632 23.4401228 45.9228397 23.9657027 45.5578294 24.3810912 45.1955955 24.7938084 44.7381486 25 44.1851622 25 43.7180797 25 43.3006451 24.8163475 42.9330218 24.4490426L42.9330218 24.8814607 42 24.8814607 42 17.721519 42.9330218 17.721519z" mask="url(#canadian_black_book_logo-b)"/>
    <polygon fill="#FFF" points="47.053 24.684 48 24.684 48 17.722 47.053 17.722" mask="url(#canadian_black_book_logo-b)"/>
    <path fill="#FFF" d="M49.5853418 22.6126472C49.5853418 22.9858244 49.6890472 23.2897197 49.8962946 23.5241757 50.1090948 23.761466 50.3774223 23.8800324 50.7007871 23.8800324 51.0461995 23.8800324 51.3254691 23.7654025 51.5384325 23.5361426 51.7512327 23.2988523 51.8577145 22.9977912 51.8577145 22.6326444 51.8577145 22.2674977 51.7512327 21.9664366 51.5384325 21.7291463 51.3254691 21.4972096 51.0491391 21.38132 50.7091161 21.38132 50.3883644 21.38132 50.1202002 21.4986267 49.9046237 21.7330828 49.6916602 21.9703731 49.5853418 22.2634037 49.5853418 22.6126472zM51.7997374 20.6776369L52.7368421 20.6776369 52.7368421 24.5715912 51.7997374 24.5715912 51.7997374 24.1639305C51.4152926 24.5103397 51.0021043 24.6835443 50.5598457 24.6835443 50.0013065 24.6835443 49.5397768 24.4890828 49.1747665 24.0998448 48.8126959 23.7027339 48.6315789 23.2068964 48.6315789 22.6126472 48.6315789 22.0289477 48.8126959 21.5425577 49.1747665 21.1533197 49.5368371 20.7642392 49.9902011 20.5696203 50.5348584 20.5696203 51.0047173 20.5696203 51.4263981 20.7562088 51.7997374 21.129386L51.7997374 20.6776369zM56.8421053 20.8454879L56.8421053 22.0409146C56.6202142 21.7903977 56.4214651 21.6184528 56.2458581 21.5250798 56.0729737 21.4291874 55.8699706 21.3811625 55.6366786 21.3811625 55.2708306 21.3811625 54.9669216 21.4997289 54.7251216 21.7370192 54.4831514 21.9743095 54.3621663 22.2714341 54.3621663 22.6285505 54.3621663 22.9938547 54.4787272 23.2936562 54.7120191 23.5281122 54.9482038 23.7625682 55.2492201 23.879875 55.6150681 23.879875 55.84836 23.879875 56.0542559 23.8334247 56.2329258 23.7400516 56.4058103 23.6495129 56.6088134 23.473474 56.8421053 23.21225L56.8421053 24.3996462C56.4474999 24.5889116 56.0527244 24.6835443 55.6582892 24.6835443 55.0072499 24.6835443 54.4629021 24.4890828 54.0250757 24.0998448 53.5872492 23.7080875 53.3684211 23.2216975 53.3684211 22.6405174 53.3684211 22.0594947 53.590142 21.5691682 54.0337539 21.1693805 54.4773659 20.7695928 55.0217137 20.5696203 55.6669675 20.5696203 56.0816519 20.5696203 56.4733645 20.6615761 56.8421053 20.8454879" mask="url(#canadian_black_book_logo-b)"/>
    <polygon fill="#FFF" points="58.367 17.722 58.367 21.967 59.625 20.669 60.824 20.669 59.145 22.355 60.947 24.684 59.788 24.684 58.51 22.989 58.367 23.138 58.367 24.684 57.474 24.684 57.474 17.722" mask="url(#canadian_black_book_logo-b)"/>
    <path fill="#FFF" d="M64.4146582 22.8465914C64.4146582 22.4509038 64.309483 22.1286772 64.0994592 21.8800786 63.886659 21.6258034 63.6198014 21.4985823 63.2992129 21.4985823 62.9562503 21.4985823 62.677144 21.6214625 62.4615675 21.8673899 62.248604 22.1104789 62.1422855 22.426862 62.1422855 22.8168731 62.1422855 23.2182372 62.2472974 23.5389612 62.4574846 23.779212 62.6675084 24.0251393 62.9438383 24.1480195 63.286801 24.1480195 63.6101658 24.1480195 63.8783299 24.0251393 64.0912934 23.779212 64.3068699 23.5306133 64.4146582 23.2195729 64.4146582 22.8465914zM62.1961797 17.721519L62.1961797 21.2314515C62.5693557 20.8357639 62.992343 20.6379201 63.4651416 20.6379201 64.0096356 20.6379201 64.4629996 20.8457813 64.8252335 21.2611698 65.1871408 21.6738869 65.3684211 22.1881138 65.3684211 22.8041844 65.3684211 23.4401228 65.1859976 23.9657027 64.8209873 24.3810912 64.4589167 24.7938084 64.0013065 25 63.4484834 25 62.9812376 25 62.563803 24.8163475 62.1961797 24.4490426L62.1961797 24.8814607 61.2631579 24.8814607 61.2631579 17.721519 62.1961797 17.721519zM66.6629053 22.6126472C66.6629053 23.0018851 66.7735112 23.3097169 66.9947231 23.5361426 67.2216328 23.7654025 67.5209391 23.8800324 67.892642 23.8800324 68.2670263 23.8800324 68.566165 23.7666622 68.7903934 23.5402365 69.0144542 23.3136534 69.1265684 23.0110178 69.1265684 22.6326444 69.1265684 22.2542711 69.0144542 21.9516355 68.7903934 21.7250524 68.5634837 21.4957925 68.2641774 21.38132 67.892642 21.38132 67.526637 21.38132 67.2301796 21.4957925 67.0032699 21.7250524 66.7763602 21.9543123 66.6629053 22.2501772 66.6629053 22.6126472M65.6842105 22.5965864C65.6842105 22.0343013 65.8983838 21.5557842 66.3267304 21.1613501 66.7550769 20.766916 67.2769358 20.5696203 67.892642 20.5696203 68.5108621 20.5696203 69.0357374 20.7681757 69.4669329 21.1654441 69.8924306 21.562555 70.1052632 22.0503621 70.1052632 22.628708 70.1052632 23.2124075 69.8910899 23.7014742 69.4627433 24.0959084 69.0315478 24.4876657 68.5024828 24.6835443 67.8755484 24.6835443 67.2543118 24.6835443 66.7337937 24.4837292 66.3139939 24.0839415 65.8940266 23.6895074 65.6842105 23.1936699 65.6842105 22.5965864M71.3997474 22.6126472C71.3997474 23.0018851 71.5103533 23.3097169 71.7315652 23.5361426 71.9584749 23.7654025 72.2577812 23.8800324 72.6294841 23.8800324 73.0038684 23.8800324 73.3030071 23.7666622 73.5272355 23.5402365 73.7512963 23.3136534 73.8634105 23.0110178 73.8634105 22.6326444 73.8634105 22.2542711 73.7512963 21.9516355 73.5272355 21.7250524 73.3003258 21.4957925 73.0010195 21.38132 72.6294841 21.38132 72.2634791 21.38132 71.9670217 21.4957925 71.740112 21.7250524 71.5132023 21.9543123 71.3997474 22.2501772 71.3997474 22.6126472M70.4210526 22.5965864C70.4210526 22.0343013 70.6352259 21.5557842 71.0635725 21.1613501 71.491919 20.766916 72.0137779 20.5696203 72.6294841 20.5696203 73.2477042 20.5696203 73.7725795 20.7681757 74.203775 21.1654441 74.6292727 21.562555 74.8421053 22.0503621 74.8421053 22.628708 74.8421053 23.2124075 74.627932 23.7014742 74.1995854 24.0959084 73.7683899 24.4876657 73.239325 24.6835443 72.6123905 24.6835443 71.9911539 24.6835443 71.4706358 24.4837292 71.050836 24.0839415 70.6308687 23.6895074 70.4210526 23.1936699 70.4210526 22.5965864" mask="url(#canadian_black_book_logo-b)"/>
    <polygon fill="#FFF" points="76.367 17.722 76.367 21.967 77.625 20.669 78.824 20.669 77.145 22.355 78.947 24.684 77.788 24.684 76.51 22.989 76.367 23.138 76.367 24.684 75.474 24.684 75.474 17.722" mask="url(#canadian_black_book_logo-b)"/>
    <path fill="#FFF" d="M79.5789474 24.3625159C79.5789474 24.1925202 79.6410406 24.0452981 79.7652269 23.9208498 79.8894133 23.7964014 80.037757 23.7341772 80.2104368 23.7341772 80.3831167 23.7341772 80.5314604 23.7964014 80.6558257 23.9208498 80.7800121 24.0452981 80.8421053 24.1941341 80.8421053 24.3669989 80.8421053 24.5430916 80.7800121 24.6933621 80.6558257 24.8178105 80.5346814 24.9392104 80.3861588 25 80.2104368 25 80.0316729 25 79.8817187 24.9392104 79.7607533 24.8178105 79.639609 24.6964105 79.5789474 24.5447055 79.5789474 24.3625159M84.9473684 20.8454879L84.9473684 22.0409146C84.7254774 21.7903977 84.5267283 21.6184528 84.3511213 21.5250798 84.1782368 21.4291874 83.9752337 21.3811625 83.7419418 21.3811625 83.376264 21.3811625 83.0721847 21.4997289 82.8303847 21.7370192 82.5884146 21.9743095 82.4674295 22.2714341 82.4674295 22.6285505 82.4674295 22.9938547 82.5839903 23.2936562 82.8172823 23.5281122 83.0534669 23.7625682 83.3546534 23.879875 83.7203312 23.879875 83.9536232 23.879875 84.159519 23.8334247 84.338189 23.7400516 84.5110734 23.6495129 84.7140765 23.473474 84.9473684 23.21225L84.9473684 24.3996462C84.5527631 24.5889116 84.1581577 24.6835443 83.7635524 24.6835443 83.1126832 24.6835443 82.5683355 24.4890828 82.1303388 24.0998448 81.6925124 23.7080875 81.4736842 23.2216975 81.4736842 22.6405174 81.4736842 22.0594947 81.6955753 21.5691682 82.1390171 21.1693805 82.5826291 20.7695928 83.1269768 20.5696203 83.7722306 20.5696203 84.1869151 20.5696203 84.5786277 20.6615761 84.9473684 20.8454879M86.2418527 22.6126472C86.2418527 23.0018851 86.3524586 23.3097169 86.5736704 23.5361426 86.8007477 23.7654025 87.0998865 23.8800324 87.4715894 23.8800324 87.8459737 23.8800324 88.14528 23.7666622 88.3693408 23.5402365 88.5934016 23.3136534 88.7055157 23.0110178 88.7055157 22.6326444 88.7055157 22.2542711 88.5934016 21.9516355 88.3693408 21.7250524 88.1424311 21.4957925 87.8432923 21.38132 87.4715894 21.38132 87.1055844 21.38132 86.8092946 21.4957925 86.5822173 21.7250524 86.3553075 21.9543123 86.2418527 22.2501772 86.2418527 22.6126472M85.2631579 22.5965864C85.2631579 22.0343013 85.4773312 21.5557842 85.9056777 21.1613501 86.3340243 20.766916 86.8560507 20.5696203 87.4715894 20.5696203 88.089977 20.5696203 88.6146848 20.7681757 89.0458803 21.1654441 89.4713779 21.562555 89.6842105 22.0503621 89.6842105 22.628708 89.6842105 23.2124075 89.4700372 23.7014742 89.0416907 24.0959084 88.6104952 24.4876657 88.0815978 24.6835443 87.4544958 24.6835443 86.8332592 24.6835443 86.312741 24.4837292 85.8929413 24.0839415 85.4731416 23.6895074 85.2631579 23.1936699 85.2631579 22.5965864M90.3157895 20.6806587L91.2731002 20.6806587 91.2731002 21.0505169C91.457424 20.8642119 91.6149371 20.7381202 91.7453042 20.6724036 91.8842174 20.6039353 92.0586547 20.5696203 92.2686162 20.5696203 92.7366311 20.5696203 93.1067868 20.7669319 93.3790833 21.1615553 93.6796986 20.7669319 94.0868866 20.5696203 94.6001446 20.5696203 95.5334932 20.5696203 96 21.1162335 96 22.2094599L96 24.6835443 95.0385001 24.6835443 95.0385001 22.4601865C95.0385001 22.0765699 94.9902408 21.8052866 94.8937221 21.6464985 94.7945224 21.4847968 94.6314796 21.4040269 94.4044263 21.4040269 94.1406757 21.4040269 93.9486438 21.500012 93.8279955 21.6916584 93.7073472 21.8834667 93.6471906 22.1916549 93.6471906 22.6163849L93.6471906 24.6835443 92.6856907 24.6835443 92.6856907 22.4724882C92.6856907 21.7601267 92.4728805 21.4040269 92.0474277 21.4040269 91.7779798 21.4040269 91.5815912 21.501145 91.4580943 21.695705 91.3347649 21.8904268 91.2731002 22.1971583 91.2731002 22.6163849L91.2731002 24.6835443 90.3157895 24.6835443 90.3157895 20.6806587z" mask="url(#canadian_black_book_logo-b)"/>
  </g>
</svg>
