<svg xmlns="http://www.w3.org/2000/svg" xmlns:xlink="http://www.w3.org/1999/xlink" width="105" height="25" viewBox="0 0 105 25">
  <defs>
    <polygon id="carproof-a" points="7.239 7.035 7.239 .14 .352 .14 .352 7.035 7.239 7.035"/>
  </defs>
  <g fill="none" fill-rule="evenodd">
    <path fill="#FFF" d="M95.4553914,25 L38.1368724,25 C37.2634474,25 36.5488269,24.2921282 36.5488269,23.4269516 L36.5488269,1.57250224 C36.5488269,0.707325599 37.2634474,0 38.1368724,0 L95.4553914,0 C96.3288164,0 97.0434369,0.707325599 97.0434369,1.57250224 L97.0434369,23.4269516 C97.0434369,24.2921282 96.3288164,25 95.4553914,25 M43.6250773,11.414565 C46.1014347,11.414565 46.8046346,11.1284857 46.8046346,8.21436507 C46.8046346,6.61454283 46.4069671,5.35746028 44.878711,5.35746028 L42.8606521,5.35746028 L42.8606521,11.414565 L43.6250773,11.414565 Z M44.9090264,14.4720031 C44.6647195,14.4720031 43.104959,14.4431174 42.8606521,14.4431174 L42.8606521,22.5 L39.0694356,22.5 L39.0694356,2.5 L45.0314771,2.5 C48.6699274,2.5 50.412175,5.01472059 50.412175,8.21436507 C50.412175,12.3572381 47.7830514,14.4720031 44.9090264,14.4720031 Z M53.8173463,11.414565 L54.916271,11.414565 C57.1408192,11.414565 57.7447471,11.1284857 57.7447471,8.21436507 C57.7447471,6.61454283 57.3880505,5.35746028 56.0418945,5.35746028 L53.8173463,5.35746028 L53.8173463,11.414565 Z M58.1842102,22.5 L54.916271,14.4431174 L53.8173463,14.4431174 L53.8173463,22.5 L50.412175,22.5 L50.412175,2.5 L56.1518938,2.5 C59.4475998,2.5 61.0132203,5.01472059 61.0132203,8.21436507 C61.0132203,11.1862571 59.7775976,13.0999333 58.1297446,13.9570603 L61.7549144,22.5 L58.1842102,22.5 Z M69.2450295,6.87271521 C69.2450295,6.28780904 68.6283939,5.22956213 67.5191689,5.22956213 C66.1624507,5.22956213 65.6075386,6.28780904 65.6075386,6.81693249 L65.6075386,18.0433399 C65.6075386,18.6840288 66.1624507,19.7141136 67.5191689,19.7141136 C68.6283939,19.7141136 69.2450295,18.6282461 69.2450295,18.0433399 L69.2450295,6.87271521 Z M73.0976538,6.84455306 L73.0976538,18.0991226 C73.0976538,20.1045926 71.3717932,22.5 67.5191689,22.5 C63.2650424,22.5 61.7549144,20.1045926 61.7549144,18.0991226 L61.7549144,6.84455306 C61.7549144,4.83908311 63.2650424,2.5 67.5191689,2.5 C71.3717932,2.5 73.0976538,4.83908311 73.0976538,6.84455306 Z M81.8480733,6.87271521 C81.8480733,6.28780904 81.2314377,5.22956213 80.1216134,5.22956213 C78.7654945,5.22956213 78.2111816,6.28780904 78.2111816,6.81693249 L78.2111816,18.0433399 C78.2111816,18.6840288 78.7654945,19.7141136 80.1216134,19.7141136 C81.2314377,19.7141136 81.8480733,18.6282461 81.8480733,18.0433399 L81.8480733,6.87271521 Z M85.7006975,6.84455306 L85.7006975,18.0991226 C85.7006975,20.1045926 83.9748369,22.5 80.1216134,22.5 C75.8680862,22.5 74.3579581,20.1045926 74.3579581,18.0991226 L74.3579581,6.84455306 C74.3579581,4.83908311 75.8680862,2.5 80.1216134,2.5 C83.9748369,2.5 85.7006975,4.83908311 85.7006975,6.84455306 Z M90.2357342,5.3579364 L90.2357342,10.2722539 L93.4014338,10.2722539 L93.4014338,13.1285238 L90.2357342,13.1285238 L90.2357342,22.5 L87.0954344,22.5 L87.0954344,2.5 L94.6572606,2.5 L94.6572606,5.3579364 L90.2357342,5.3579364 Z"/>
    <path fill="#143D57" d="M1.16103015,1.74801787 L1.29559455,1.74801787 C1.45291615,1.74801787 1.58005972,1.69525405 1.58005972,1.56610832 C1.58005972,1.45203797 1.49744114,1.37615857 1.31785704,1.37615857 C1.24315401,1.37615857 1.1912082,1.38319375 1.16103015,1.39123395 L1.16103015,1.74801787 Z M1.15360932,2.44751535 L0.869638878,2.44751535 L0.869638878,1.20882189 C0.981446057,1.18620882 1.13876766,1.16309324 1.34061425,1.16309324 C1.57263888,1.16309324 1.67702523,1.2012842 1.76706464,1.26208822 C1.83385212,1.31535455 1.88678737,1.41384701 1.88678737,1.52841988 C1.88678737,1.67264098 1.78141158,1.77917365 1.63250025,1.82389726 L1.63250025,1.83947515 C1.75222298,1.87766611 1.81950518,1.97615857 1.85660933,2.14349525 C1.89420821,2.333445 1.9164707,2.4093244 1.94664874,2.44751535 L1.63942636,2.44751535 C1.60232221,2.40178671 1.58005972,2.29525405 1.54246084,2.15103294 C1.52019835,2.01384701 1.44549532,1.95354551 1.28817372,1.95354551 L1.15360932,1.95354551 L1.15360932,2.44751535 Z M1.34061425,0.806309324 C0.801861959,0.806309324 0.398168782,1.25455053 0.398168782,1.8012842 C0.398168782,2.35605807 0.801861959,2.79676159 1.35545591,2.79676159 C1.89420821,2.80429927 2.29048055,2.35605807 2.29048055,1.8012842 C2.29048055,1.25455053 1.89420821,0.806309324 1.34803508,0.806309324 L1.34061425,0.806309324 Z M1.35545591,0.555555556 C2.05845592,0.555555556 2.60462904,1.10982691 2.60462904,1.8012842 C2.60462904,2.50831937 2.05845592,3.05555556 1.34803508,3.05555556 C0.645035075,3.05555556 0.0840202917,2.50831937 0.0840202917,1.8012842 C0.0840202917,1.10982691 0.645035075,0.555555556 1.34803508,0.555555556 L1.35545591,0.555555556 Z" transform="translate(90.658 19.444)"/>
    <path fill="#FFF" d="M7.51098051 8.40430285L7.51098051 6.87271521C7.51098051 6.28780904 6.87245257 5.28480327 5.77808663 5.28480327 4.43954287 5.28480327 3.86191158 6.28780904 3.86191158 6.87271521L3.86191158 18.1262016C3.86191158 18.7111078 4.43954287 19.7141136 5.77808663 19.7141136 6.87245257 19.7141136 7.51098051 18.7111078 7.51098051 18.1262016L7.51098051 16.594614 11.3427394 16.594614 11.3427394 18.1262016C11.3427394 20.1045926 9.60925427 22.5 5.77808663 22.5 1.58153911 22.5 0 20.1045926 0 18.1543638L0 6.87271521C0 4.8954074 1.58153911 2.5 5.77808663 2.5 9.60925427 2.5 11.3427394 4.8954074 11.3427394 6.87271521L11.3427394 8.40430285 7.51098051 8.40430285zM18.0163839 14.9569492L16.9724589 7.78607932 16.8907604 7.78607932 15.8190685 14.9569492 18.0163839 14.9569492zM18.5658462 17.8432952L15.2423734 17.8432952 14.5834458 22.5 11.3427394 22.5 15.297373 2.5 18.7303111 2.5 22.6854788 22.5 19.2525406 22.5 18.5658462 17.8432952zM27.3514884 11.414565L28.4504131 11.414565C30.6749613 11.414565 31.2788892 11.1284857 31.2788892 8.21436507 31.2788892 6.61454283 30.9221926 5.35746028 29.5760366 5.35746028L27.3514884 5.35746028 27.3514884 11.414565zM31.7183523 22.5L28.4504131 14.4431174 27.3514884 14.4431174 27.3514884 22.5 23.9457831 22.5 23.9457831 2.5 29.6860359 2.5C32.9817419 2.5 34.5473624 5.01472059 34.5473624 8.21436507 34.5473624 11.1862571 33.3117397 13.0999333 31.6638867 13.9570603L35.2885225 22.5 31.7183523 22.5z"/>
    <g transform="translate(97.043 1.25)">
      <mask id="carproof-b" fill="#fff">
        <use xlink:href="#carproof-a"/>
      </mask>
      <polygon fill="#FFF" points="3.623 5.904 1.887 6.088 2.013 5.435 .352 3.985 .682 3.752 .402 2.601 1.421 2.805 1.704 2.322 2.738 3.258 2.364 1.11 3.054 1.516 3.76 .14 4.476 1.507 5.188 1.114 4.825 3.261 5.846 2.281 6.175 2.842 7.147 2.594 6.848 3.761 7.239 4.042 5.496 5.455 5.7 6.109 3.978 5.905 3.977 7.035 3.626 7.035" mask="url(#carproof-b)"/>
    </g>
  </g>
</svg>
