
<svg width="14px" height="14px" viewBox="0 0 14 14" version="1.1" xmlns="http://www.w3.org/2000/svg" xmlns:xlink="http://www.w3.org/1999/xlink">
    <!-- Generator: Sketch 48.1 (47250) - http://www.bohemiancoding.com/sketch -->
    <desc>Created with Sketch.</desc>
    <defs></defs>
    <g id="Symbols" stroke="none" stroke-width="1" fill="none" fill-rule="evenodd">
        <g id="blog-post-2" transform="translate(-15.000000, -374.000000)">
            <g id="Group-3">
                <g id="ic_library_books_black_24px" transform="translate(14.000000, 374.000000)">
                    <polygon id="Shape" points="0 0 17 0 17 15 0 15"></polygon>
                    <path d="M2.44375,3.375 L1.0625,3.375 L1.0625,11.90625 C1.0625,12.5765625 1.6840625,13.125 2.44375,13.125 L12.1125,13.125 L12.1125,11.90625 L2.44375,11.90625 L2.44375,3.375 Z M13.49375,0.9375 L5.20625,0.9375 C4.4465625,0.9375 3.825,1.4859375 3.825,2.15625 L3.825,9.46875 C3.825,10.1390625 4.4465625,10.6875 5.20625,10.6875 L13.49375,10.6875 C14.2534375,10.6875 14.875,10.1390625 14.875,9.46875 L14.875,2.15625 C14.875,1.4859375 14.2534375,0.9375 13.49375,0.9375 Z M12.803125,6.421875 L5.896875,6.421875 L5.896875,5.203125 L12.803125,5.203125 L12.803125,6.421875 Z M10.040625,8.859375 L5.896875,8.859375 L5.896875,7.640625 L10.040625,7.640625 L10.040625,8.859375 Z M12.803125,3.984375 L5.896875,3.984375 L5.896875,2.765625 L12.803125,2.765625 L12.803125,3.984375 Z" id="Shape" fill="#C1C1C1" fill-rule="nonzero"></path>
                </g>
            </g>
        </g>
    </g>
</svg>