
<svg width="137px" height="12px" viewBox="0 0 137 12" version="1.1" xmlns="http://www.w3.org/2000/svg" xmlns:xlink="http://www.w3.org/1999/xlink">
    <!-- Generator: Sketch 48.1 (47250) - http://www.bohemiancoding.com/sketch -->
    <desc>Created with Sketch.</desc>
    <defs></defs>
    <g id="DESKTOP" stroke="none" stroke-width="1" fill="none" fill-rule="evenodd">
        <g id="News--article" transform="translate(-957.000000, -704.000000)" fill="#0073CE">
            <g id="Group-10" transform="translate(957.000000, 704.000000)">
                <path d="M3.87304688,8.14257812 L6.04101563,1.46875 L7.66992188,1.46875 L4.59960938,10 L3.1640625,10 L0.10546875,1.46875 L1.72851562,1.46875 L3.87304688,8.14257812 Z M10.8619791,10 L9.38541663,10 L9.38541663,1.46875 L10.8619791,1.46875 L10.8619791,10 Z M18.3372395,6.19140625 L14.8333333,6.19140625 L14.8333333,8.81640625 L18.9290364,8.81640625 L18.9290364,10 L13.3509114,10 L13.3509114,1.46875 L18.8880208,1.46875 L18.8880208,2.6640625 L14.8333333,2.6640625 L14.8333333,5.01953125 L18.3372395,5.01953125 L18.3372395,6.19140625 Z M27.4941405,7.890625 L28.8066405,1.46875 L30.2773436,1.46875 L28.3085936,10 L26.8906249,10 L25.267578,3.77148438 L23.6093749,10 L22.1855468,10 L20.2167968,1.46875 L21.6874999,1.46875 L23.0117186,7.87890625 L24.6406249,1.46875 L25.8828124,1.46875 L27.4941405,7.890625 Z M37.6048175,1.46875 L40.065755,8.0078125 L42.5208331,1.46875 L44.4368488,1.46875 L44.4368488,10 L42.9602863,10 L42.9602863,7.1875 L43.1067706,3.42578125 L40.5872394,10 L39.5266925,10 L37.0130206,3.43164062 L37.159505,7.1875 L37.159505,10 L35.6829425,10 L35.6829425,1.46875 L37.6048175,1.46875 Z M53.6640623,5.95703125 C53.6640623,6.79297293 53.5195325,7.52636403 53.2304685,8.15722656 C52.9414046,8.78808909 52.5283228,9.27245925 51.9912107,9.61035156 C51.4540986,9.94824388 50.8359408,10.1171875 50.1367185,10.1171875 C49.4453088,10.1171875 48.829104,9.94824388 48.2880857,9.61035156 C47.7470674,9.27245925 47.3291028,8.79101875 47.0341794,8.16601562 C46.7392561,7.5410125 46.5898435,6.82031658 46.5859373,6.00390625 L46.5859373,5.5234375 C46.5859373,4.69140209 46.7333967,3.95703443 47.0283201,3.3203125 C47.3232434,2.68359057 47.7392549,2.19629075 48.2763669,1.85839844 C48.813479,1.52050612 49.4296838,1.3515625 50.1249998,1.3515625 C50.8203157,1.3515625 51.4365205,1.51855302 51.9736326,1.85253906 C52.5107446,2.18652511 52.9257795,2.66698905 53.2187498,3.29394531 C53.51172,3.92090157 53.660156,4.65038646 53.6640623,5.48242187 L53.6640623,5.95703125 Z M52.1816404,5.51171875 C52.1816404,4.56640152 52.0029312,3.84179939 51.6455076,3.33789062 C51.2880839,2.83398186 50.781253,2.58203125 50.1249998,2.58203125 C49.4843716,2.58203125 48.9834,2.8330053 48.6220701,3.33496094 C48.2607401,3.83691657 48.0761717,4.54687041 48.0683591,5.46484375 L48.0683591,5.95703125 C48.0683591,6.89453594 48.2509745,7.61913807 48.6162107,8.13085938 C48.9814469,8.64258068 49.4882778,8.8984375 50.1367185,8.8984375 C50.7929718,8.8984375 51.2978496,8.64844 51.6513669,8.1484375 C52.0048843,7.648435 52.1816404,6.91797355 52.1816404,5.95703125 L52.1816404,5.51171875 Z M58.942057,6.71289062 L57.2897133,6.71289062 L57.2897133,10 L55.8072914,10 L55.8072914,1.46875 L58.8072914,1.46875 C59.7916713,1.46875 60.5514293,1.68945092 61.0865883,2.13085938 C61.6217472,2.57226783 61.8893226,3.21093332 61.8893226,4.046875 C61.8893226,4.61719035 61.7516287,5.09472464 61.4762367,5.47949219 C61.2008447,5.86425974 60.8170595,6.16015521 60.3248695,6.3671875 L62.2408851,9.92382812 L62.2408851,10 L60.6529945,10 L58.942057,6.71289062 Z M57.2897133,5.5234375 L58.8131508,5.5234375 C59.3131533,5.5234375 59.7037744,5.3974622 59.9850258,5.14550781 C60.2662772,4.89355343 60.4069008,4.54883031 60.4069008,4.11132812 C60.4069008,3.65429459 60.2770192,3.3007825 60.0172523,3.05078125 C59.7574854,2.80078 59.369794,2.67187504 58.8541664,2.6640625 L57.2897133,2.6640625 L57.2897133,5.5234375 Z M68.9485674,6.19140625 L65.4446611,6.19140625 L65.4446611,8.81640625 L69.5403643,8.81640625 L69.5403643,10 L63.9622393,10 L63.9622393,1.46875 L69.4993486,1.46875 L69.4993486,2.6640625 L65.4446611,2.6640625 L65.4446611,5.01953125 L68.9485674,5.01953125 L68.9485674,6.19140625 Z M81.8365881,10 L80.3541663,10 L76.5514319,3.94726562 L76.5514319,10 L75.06901,10 L75.06901,1.46875 L76.5514319,1.46875 L80.365885,7.54492188 L80.365885,1.46875 L81.8365881,1.46875 L81.8365881,10 Z M89.241536,6.19140625 L85.7376298,6.19140625 L85.7376298,8.81640625 L89.8333329,8.81640625 L89.8333329,10 L84.2552079,10 L84.2552079,1.46875 L89.7923173,1.46875 L89.7923173,2.6640625 L85.7376298,2.6640625 L85.7376298,5.01953125 L89.241536,5.01953125 L89.241536,6.19140625 Z M98.398437,7.890625 L99.710937,1.46875 L101.18164,1.46875 L99.2128901,10 L97.7949214,10 L96.1718745,3.77148438 L94.5136714,10 L93.0898433,10 L91.1210933,1.46875 L92.5917964,1.46875 L93.9160151,7.87890625 L95.5449214,1.46875 L96.7871089,1.46875 L98.398437,7.890625 Z M107.391276,7.80273438 C107.391276,7.4277325 107.259441,7.13867289 106.995768,6.93554687 C106.732095,6.73242086 106.256513,6.52734479 105.56901,6.3203125 C104.881506,6.11328021 104.334637,5.88281377 103.928385,5.62890625 C103.151037,5.14062256 102.762369,4.50391018 102.762369,3.71875 C102.762369,3.03124656 103.04264,2.46484598 103.60319,2.01953125 C104.163739,1.57421652 104.891271,1.3515625 105.785807,1.3515625 C106.37956,1.3515625 106.908851,1.46093641 107.373697,1.6796875 C107.838543,1.89843859 108.203774,2.20995892 108.469401,2.61425781 C108.735027,3.01855671 108.867838,3.46679441 108.867838,3.95898438 L107.391276,3.95898438 C107.391276,3.51366965 107.251628,3.16504032 106.97233,2.91308594 C106.693032,2.66113155 106.293622,2.53515625 105.774088,2.53515625 C105.289711,2.53515625 104.913738,2.63867084 104.646158,2.84570312 C104.378579,3.05273541 104.244791,3.34179502 104.244791,3.71289062 C104.244791,4.02539219 104.389321,4.28613177 104.678385,4.49511719 C104.967449,4.70410261 105.444007,4.90722558 106.108072,5.10449219 C106.772138,5.3017588 107.305336,5.52636593 107.707682,5.77832031 C108.110028,6.0302747 108.404946,6.31933431 108.592447,6.64550781 C108.779948,6.97168132 108.873697,7.35351344 108.873697,7.79101562 C108.873697,8.50195668 108.601239,9.06738071 108.056315,9.48730469 C107.51139,9.90722866 106.77214,10.1171875 105.838541,10.1171875 C105.221351,10.1171875 104.653973,10.0029308 104.136393,9.77441406 C103.618812,9.54589729 103.216472,9.23047076 102.929361,8.828125 C102.642251,8.42577924 102.498697,7.95703393 102.498697,7.421875 L103.981119,7.421875 C103.981119,7.90625242 104.141274,8.28124867 104.461588,8.546875 C104.781902,8.81250133 105.240882,8.9453125 105.838541,8.9453125 C106.354169,8.9453125 106.74186,8.84082136 107.001627,8.63183594 C107.261394,8.42285052 107.391276,8.14648609 107.391276,7.80273438 Z" id="View-more-News"></path>
                <polygon id="Shape" fill-rule="nonzero" points="123.331984 0 122 1.41 126.326586 6 122 10.59 123.331984 12 129 6"></polygon>
                <polygon id="Shape-Copy" fill-rule="nonzero" points="131.331984 0 130 1.41 134.326586 6 130 10.59 131.331984 12 137 6"></polygon>
            </g>
        </g>
    </g>
</svg>